<mxfile host="65bd71144e">
    <diagram id="8ns63juBduFtukD101pN" name="ページ1">
        <mxGraphModel dx="673" dy="352" grid="1" gridSize="10" guides="1" tooltips="1" connect="0" arrows="0" fold="1" page="1" pageScale="1" pageWidth="827" pageHeight="1169" math="0" shadow="0">
            <root>
                <mxCell id="0"/>
                <mxCell id="1" parent="0"/>
                <mxCell id="2" value="" style="whiteSpace=wrap;html=1;rounded=1;fillColor=#FFFFFF;strokeColor=none;" vertex="1" parent="1">
                    <mxGeometry x="20" y="20" width="320" height="320" as="geometry"/>
                </mxCell>
                <mxCell id="585" value="" style="whiteSpace=wrap;html=1;rounded=1;fillColor=#42A5F5;strokeColor=none;" vertex="1" parent="1">
                    <mxGeometry x="50" y="120" width="260" height="50" as="geometry"/>
                </mxCell>
                <mxCell id="586" value="" style="whiteSpace=wrap;html=1;rounded=1;fillColor=#42A5F5;strokeColor=none;" vertex="1" parent="1">
                    <mxGeometry x="190" y="50" width="50" height="260" as="geometry"/>
                </mxCell>
                <mxCell id="587" value="" style="whiteSpace=wrap;html=1;rounded=1;fillColor=#42A5F5;strokeColor=none;" vertex="1" parent="1">
                    <mxGeometry x="70" y="240" width="50" height="50" as="geometry"/>
                </mxCell>
            </root>
        </mxGraphModel>
    </diagram>
</mxfile>